<mxfile host="app.diagrams.net" modified="2023-08-03T01:05:30.309Z" agent="Mozilla/5.0 (Windows NT 10.0; Win64; x64) AppleWebKit/537.36 (KHTML, like Gecko) Chrome/115.0.0.0 Safari/537.36" etag="VPDUcm_nOtACXZJmSHy1" version="21.6.6" type="onedrive">
  <diagram name="Page-1" id="1PZkxJIa5HmIA4AYWVJv">
    <mxGraphModel grid="1" page="1" gridSize="10" guides="1" tooltips="1" connect="1" arrows="1" fold="1" pageScale="1" pageWidth="850" pageHeight="1100" math="0" shadow="0">
      <root>
        <mxCell id="0" />
        <mxCell id="1" parent="0" />
        <mxCell id="XN8-gen7VchQwnnfK_-8-5" value="Temp History / Export" style="strokeWidth=1;shadow=0;dashed=0;align=center;html=1;shape=mxgraph.mockup.containers.window;align=left;verticalAlign=top;spacingLeft=8;strokeColor2=#008cff;strokeColor3=#c4c4c4;fontColor=#666666;mainText=;fontSize=17;labelBackgroundColor=none;whiteSpace=wrap;" vertex="1" parent="1">
          <mxGeometry x="40" y="70" width="350" height="530" as="geometry" />
        </mxCell>
        <mxCell id="XN8-gen7VchQwnnfK_-8-6" value="&lt;h1&gt;History / Export&lt;/h1&gt;&lt;p&gt;Below are your recent calculations - showing 3/3 calculations. All Calculations are shown to the nearest degree.&lt;/p&gt;" style="text;html=1;strokeColor=none;fillColor=none;spacing=5;spacingTop=-20;whiteSpace=wrap;overflow=hidden;rounded=0;" vertex="1" parent="1">
          <mxGeometry x="50" y="110" width="330" height="120" as="geometry" />
        </mxCell>
        <mxCell id="XN8-gen7VchQwnnfK_-8-7" value="&lt;font style=&quot;font-size: 14px;&quot;&gt;0 degrees C = 32 degrees F&lt;br&gt;0 degrees F = -18 degrees C&lt;br&gt;-273 degrees C = -459 degrees F&lt;/font&gt;" style="rounded=0;whiteSpace=wrap;html=1;fillColor=#ffe6cc;strokeColor=none;gradientColor=none;" vertex="1" parent="1">
          <mxGeometry x="60" y="230" width="310" height="80" as="geometry" />
        </mxCell>
        <mxCell id="XN8-gen7VchQwnnfK_-8-9" value="Either choose a custom file name (and push &amp;lt;Export&amp;gt;) or simply push &amp;lt;Export&amp;gt; to save your calculations in a text file" style="text;html=1;strokeColor=none;fillColor=none;align=left;verticalAlign=middle;whiteSpace=wrap;rounded=0;" vertex="1" parent="1">
          <mxGeometry x="60" y="330" width="310" height="40" as="geometry" />
        </mxCell>
        <mxCell id="XN8-gen7VchQwnnfK_-8-10" value="" style="rounded=0;whiteSpace=wrap;html=1;" vertex="1" parent="1">
          <mxGeometry x="60" y="390" width="310" height="50" as="geometry" />
        </mxCell>
        <mxCell id="XN8-gen7VchQwnnfK_-8-12" value="&lt;font size=&quot;1&quot; style=&quot;&quot; color=&quot;#fe4848&quot;&gt;&lt;b style=&quot;font-size: 13px;&quot;&gt;Error message if filename is Invalid&lt;/b&gt;&lt;/font&gt;" style="text;html=1;strokeColor=none;fillColor=none;align=center;verticalAlign=middle;whiteSpace=wrap;rounded=0;" vertex="1" parent="1">
          <mxGeometry x="60" y="450" width="310" height="30" as="geometry" />
        </mxCell>
        <mxCell id="XN8-gen7VchQwnnfK_-8-13" value="Export" style="strokeWidth=1;shadow=0;dashed=0;align=center;html=1;shape=mxgraph.mockup.buttons.button;strokeColor=none;fontColor=#ffffff;mainText=;buttonStyle=round;fontSize=17;fontStyle=1;fillColor=#008cff;whiteSpace=wrap;" vertex="1" parent="1">
          <mxGeometry x="60" y="520" width="150" height="50" as="geometry" />
        </mxCell>
        <mxCell id="XN8-gen7VchQwnnfK_-8-14" value="Close" style="strokeWidth=1;shadow=0;dashed=0;align=center;html=1;shape=mxgraph.mockup.buttons.button;strokeColor=none;mainText=;buttonStyle=round;fontSize=17;fontStyle=1;fillColor=#bac8d3;whiteSpace=wrap;fontColor=#ffffff;" vertex="1" parent="1">
          <mxGeometry x="220" y="520" width="150" height="50" as="geometry" />
        </mxCell>
        <mxCell id="XN8-gen7VchQwnnfK_-8-15" value="Temp History / Export" style="strokeWidth=1;shadow=0;dashed=0;align=center;html=1;shape=mxgraph.mockup.containers.window;align=left;verticalAlign=top;spacingLeft=8;strokeColor2=#008cff;strokeColor3=#c4c4c4;fontColor=#666666;mainText=;fontSize=17;labelBackgroundColor=none;whiteSpace=wrap;" vertex="1" parent="1">
          <mxGeometry x="40" y="640" width="350" height="500" as="geometry" />
        </mxCell>
        <mxCell id="XN8-gen7VchQwnnfK_-8-16" value="&lt;h1&gt;History / Export&lt;/h1&gt;&lt;p&gt;Below are your recent calculations - showing 5/7 calculations. All Calculations are shown to the nearest degree.&lt;/p&gt;" style="text;html=1;strokeColor=none;fillColor=none;spacing=5;spacingTop=-20;whiteSpace=wrap;overflow=hidden;rounded=0;" vertex="1" parent="1">
          <mxGeometry x="50" y="680" width="330" height="120" as="geometry" />
        </mxCell>
        <mxCell id="XN8-gen7VchQwnnfK_-8-17" value="&lt;font style=&quot;font-size: 14px;&quot;&gt;0 degrees C = 32 degrees F&lt;br&gt;0 degrees F = -18 degrees C&lt;br&gt;-273 degrees C = -459 degrees F&lt;br&gt;100 degrees C = 212 degrees F&lt;br&gt;100 degrees F = 38 degrees C&lt;br&gt;&lt;/font&gt;" style="rounded=0;whiteSpace=wrap;html=1;fillColor=#ffe6cc;strokeColor=none;gradientColor=none;" vertex="1" parent="1">
          <mxGeometry x="60" y="800" width="310" height="120" as="geometry" />
        </mxCell>
        <mxCell id="XN8-gen7VchQwnnfK_-8-18" value="Either choose a custom file name (and push &amp;lt;Export&amp;gt;) or simply push &amp;lt;Export&amp;gt; to save your calculations in a text file" style="text;html=1;strokeColor=none;fillColor=none;align=left;verticalAlign=middle;whiteSpace=wrap;rounded=0;" vertex="1" parent="1">
          <mxGeometry x="60" y="940" width="310" height="40" as="geometry" />
        </mxCell>
        <mxCell id="XN8-gen7VchQwnnfK_-8-19" value="" style="rounded=0;whiteSpace=wrap;html=1;" vertex="1" parent="1">
          <mxGeometry x="60" y="1000" width="310" height="50" as="geometry" />
        </mxCell>
        <mxCell id="XN8-gen7VchQwnnfK_-8-20" value="&lt;font size=&quot;1&quot; style=&quot;&quot; color=&quot;#fe4848&quot;&gt;&lt;b style=&quot;font-size: 13px;&quot;&gt;Error message if filename is Invalid&lt;/b&gt;&lt;/font&gt;" style="text;html=1;strokeColor=none;fillColor=none;align=center;verticalAlign=middle;whiteSpace=wrap;rounded=0;" vertex="1" parent="1">
          <mxGeometry x="60" y="1050" width="310" height="30" as="geometry" />
        </mxCell>
        <mxCell id="XN8-gen7VchQwnnfK_-8-21" value="Export" style="strokeWidth=1;shadow=0;dashed=0;align=center;html=1;shape=mxgraph.mockup.buttons.button;strokeColor=none;fontColor=#ffffff;mainText=;buttonStyle=round;fontSize=17;fontStyle=1;fillColor=#008cff;whiteSpace=wrap;" vertex="1" parent="1">
          <mxGeometry x="60" y="1080" width="150" height="50" as="geometry" />
        </mxCell>
        <mxCell id="XN8-gen7VchQwnnfK_-8-22" value="Close" style="strokeWidth=1;shadow=0;dashed=0;align=center;html=1;shape=mxgraph.mockup.buttons.button;strokeColor=none;mainText=;buttonStyle=round;fontSize=17;fontStyle=1;fillColor=#bac8d3;whiteSpace=wrap;fontColor=#ffffff;" vertex="1" parent="1">
          <mxGeometry x="220" y="1080" width="150" height="50" as="geometry" />
        </mxCell>
      </root>
    </mxGraphModel>
  </diagram>
</mxfile>
